<?xml version="1.0" standalone="no"?><!-- Generator: Gravit.io --><svg xmlns="http://www.w3.org/2000/svg" xmlns:xlink="http://www.w3.org/1999/xlink" style="isolation:isolate" viewBox="0 0 490.319 490.319" width="490.319" height="490.319"><defs><clipPath id="_clipPath_OSc3iA6yCi7Cx4HVyP0cs2tudjUZpWfF"><rect width="490.319" height="490.319"/></clipPath></defs><g clip-path="url(#_clipPath_OSc3iA6yCi7Cx4HVyP0cs2tudjUZpWfF)"><clipPath id="_clipPath_PBXq6urjor0lkq8GcmsAPYZbAZ3KMHqJ"><path d=" M 0 0 L 0 490.319 L 490.319 490.319 L 490.319 0 L 0 0 Z " fill="rgb(255,255,255)"/></clipPath><g clip-path="url(#_clipPath_PBXq6urjor0lkq8GcmsAPYZbAZ3KMHqJ)"><path d=" M 490.319 349.681 L 0 349.681 L 0 0 L 490.319 0 L 490.319 349.681 Z " fill="rgb(141,209,206)"/></g><clipPath id="_clipPath_fcX2OTA9k439sx8E0yRKpr7NdC4t5lQt"><path d=" M 0 0 L 0 490.319 L 490.319 490.319 L 490.319 0 L 0 0 Z " fill="rgb(255,255,255)"/></clipPath><g clip-path="url(#_clipPath_fcX2OTA9k439sx8E0yRKpr7NdC4t5lQt)"><path d=" M 358.251 330.118 L 328.992 330.118 L 328.992 251.872 C 328.992 244.329 335.542 238.214 343.621 238.214 C 351.701 238.214 358.251 244.329 358.251 251.872 L 358.251 330.118 Z  M 231.574 126.231 L 149.293 126.231 L 149.293 125.379 C 149.293 115.498 168.121 99.764 190.434 99.764 C 212.746 99.764 231.574 115.498 231.574 125.379 L 231.574 126.231 Z  M 231.574 153.202 L 214.314 153.202 L 214.314 130.645 L 231.574 130.645 L 231.574 153.202 Z  M 231.574 180.173 L 214.314 180.173 L 214.314 157.617 L 231.574 157.617 L 231.574 180.173 Z  M 231.574 246.321 L 214.314 246.321 L 214.314 223.765 L 231.574 223.765 L 231.574 246.321 Z  M 231.574 273.293 L 214.314 273.293 L 214.314 250.736 L 231.574 250.736 L 231.574 273.293 Z  M 209.9 153.202 L 192.641 153.202 L 192.641 130.645 L 209.9 130.645 L 209.9 153.202 Z  M 209.9 180.173 L 192.641 180.173 L 192.641 157.617 L 209.9 157.617 L 209.9 180.173 Z  M 209.9 246.321 L 192.641 246.321 L 192.641 223.765 L 209.9 223.765 L 209.9 246.321 Z  M 209.9 273.293 L 192.641 273.293 L 192.641 250.736 L 209.9 250.736 L 209.9 273.293 Z  M 188.225 153.202 L 170.967 153.202 L 170.967 130.645 L 188.225 130.645 L 188.225 153.202 Z  M 188.225 180.173 L 170.967 180.173 L 170.967 157.617 L 188.225 157.617 L 188.225 180.173 Z  M 188.225 246.321 L 170.967 246.321 L 170.967 223.765 L 188.225 223.765 L 188.225 246.321 Z  M 188.225 273.293 L 170.967 273.293 L 170.967 250.736 L 188.225 250.736 L 188.225 273.293 Z  M 166.552 153.202 L 149.293 153.202 L 149.293 130.645 L 166.552 130.645 L 166.552 153.202 Z  M 166.552 180.173 L 149.293 180.173 L 149.293 157.617 L 166.552 157.617 L 166.552 180.173 Z  M 166.552 246.321 L 149.293 246.321 L 149.293 223.765 L 166.552 223.765 L 166.552 246.321 Z  M 166.552 273.293 L 149.293 273.293 L 149.293 250.736 L 166.552 250.736 L 166.552 273.293 Z  M 490.319 273.474 L 489.564 273.874 L 481.316 269.113 L 472.853 273.592 L 465.095 269.113 L 456.097 273.874 L 447.85 269.113 L 439.386 273.592 L 431.628 269.113 L 424.539 272.864 L 424.539 255.786 L 424.539 242.928 L 442.917 248.887 L 444.806 243.723 L 451.025 226.728 L 392.553 207.663 L 392.553 187.001 L 392.553 180.515 L 398.315 180.515 L 398.315 175.374 L 398.315 162.291 L 363.329 162.291 L 363.329 175.374 L 363.329 180.515 L 369.915 180.515 L 369.915 187.001 L 369.915 200.282 L 273.772 168.934 L 273.772 148.252 L 273.772 131.001 L 280.388 136.857 L 296.075 119.21 L 188.492 23.976 L 75.69 124.468 L 91.432 142.065 L 98.012 136.204 L 98.012 148.252 L 98.012 272.323 L 92.453 269.113 L 83.989 273.592 L 76.231 269.113 L 74.893 269.821 C 73.916 231.578 64.562 172.954 53.164 172.954 C 41.498 172.954 31.971 234.379 31.378 272.495 L 25.52 269.113 L 17.057 273.592 L 9.299 269.113 L 0.301 273.874 L 0.301 335.69 L 16.523 335.69 L 17.546 335.69 L 33.768 335.69 L 49.989 335.69 L 51.012 335.69 L 67.234 335.69 L 83.456 335.69 L 84.478 335.69 L 98.012 335.69 L 98.012 364.389 L 270.167 364.389 L 273.772 364.389 L 424.539 364.389 L 424.539 335.69 L 438.853 335.69 L 439.876 335.69 L 456.097 335.69 L 472.319 335.69 L 473.342 335.69 L 489.564 335.69 L 490.319 335.69 L 490.319 273.474 Z " fill="rgb(42,186,170)"/></g><clipPath id="_clipPath_Erx9aRCGuBZYG2894an81PkRaoSwCESf"><path d=" M 0 0 L 0 490.319 L 490.319 490.319 L 490.319 0 L 0 0 Z " fill="rgb(255,255,255)"/></clipPath><g clip-path="url(#_clipPath_Erx9aRCGuBZYG2894an81PkRaoSwCESf)"><path d=" M 490.319 368.72 L 0 368.72 L 0 330.559 L 490.319 330.559 L 490.319 368.72 Z " fill="rgb(132,174,96)"/></g><clipPath id="_clipPath_w5SCfCAcAYOpc6JMfBcH64appLnw2sMK"><path d=" M 0 0 L 0 490.319 L 490.319 490.319 L 490.319 0 L 0 0 Z " fill="rgb(255,255,255)"/></clipPath><g clip-path="url(#_clipPath_w5SCfCAcAYOpc6JMfBcH64appLnw2sMK)"><path d=" M 490.319 374.75 L 0 374.75 L 0 364.389 L 490.319 364.389 L 490.319 374.75 Z " fill="rgb(237,219,208)"/></g><clipPath id="_clipPath_U02ioguaFxfkNIlsz9673yVC0Q0gy058"><path d=" M 0 2 L 0 492.319 L 490.319 492.319 L 490.319 2 L 0 2 Z " fill="rgb(255,255,255)"/></clipPath><g clip-path="url(#_clipPath_U02ioguaFxfkNIlsz9673yVC0Q0gy058)"><path d=" M 490.319 389.206 L 0 389.206 L 0 376.75 L 490.319 376.75 L 490.319 389.206 Z " fill="rgb(215,195,178)"/></g><clipPath id="_clipPath_hEnFnm8vxMoTgkbMhxvPGksUYUcwHaLg"><path d=" M 0 0 L 0 490.319 L 490.319 490.319 L 490.319 0 L 0 0 Z " fill="rgb(255,255,255)"/></clipPath><g clip-path="url(#_clipPath_hEnFnm8vxMoTgkbMhxvPGksUYUcwHaLg)"><path d=" M 490.319 490.319 L 0 490.319 L 0 387.206 L 490.319 387.206 L 490.319 490.319 Z  M 115.667 427.203 C 86.394 427.203 62.663 431.363 62.663 436.493 C 62.663 441.624 86.394 445.784 115.667 445.784 C 144.94 445.784 168.671 441.624 168.671 436.493 C 168.671 431.363 144.94 427.203 115.667 427.203 Z  M 241.553 424.311 C 210.174 424.311 184.736 428.77 184.736 434.27 C 184.736 439.77 210.174 444.229 241.553 444.229 C 272.931 444.229 298.369 439.77 298.369 434.27 C 298.369 428.77 272.931 424.311 241.553 424.311 Z " fill="rgb(166,169,170)"/></g><clipPath id="_clipPath_yR1jHClBHtiAgTVxnHeBZjTceW6SAt3i"><path d=" M 0 0 L 0 490.319 L 490.319 490.319 L 490.319 0 L 0 0 Z " fill="rgb(255,255,255)"/></clipPath><g clip-path="url(#_clipPath_yR1jHClBHtiAgTVxnHeBZjTceW6SAt3i)"/><path d=" M 0 0 L 0 490.319 L 490.319 490.319 L 490.319 0 L 0 0 Z " fill="none"/><path d=" M 0 0 L 0 490.319 L 490.319 490.319 L 490.319 0 L 0 0 Z " fill="none"/><path d=" M 0 0 L 0 490.319 L 490.319 490.319 L 490.319 0 L 0 0 Z " fill="none"/><path d=" M 0 0 L 0 490.319 L 490.319 490.319 L 490.319 0 L 0 0 Z " fill="none"/><path d=" M 0 0 L 0 490.319 L 490.319 490.319 L 490.319 0 L 0 0 Z " fill="none"/><path d=" M 0 0 L 0 490.319 L 490.319 490.319 L 490.319 0 L 0 0 Z " fill="none"/><path d=" M 0 0 L 0 490.319 L 490.319 490.319 L 490.319 0 L 0 0 Z " fill="none"/><path d=" M 0 0 L 0 490.319 L 490.319 490.319 L 490.319 0 L 0 0 Z " fill="none"/><path d=" M 0 0 L 0 490.319 L 490.319 490.319 L 490.319 0 L 0 0 Z " fill="none"/><path d=" M 0 0 L 0 490.319 L 490.319 490.319 L 490.319 0 L 0 0 Z " fill="none"/><path d=" M 0 0 L 0 490.319 L 490.319 490.319 L 490.319 0 L 0 0 Z " fill="none"/><path d=" M 0 0 L 0 490.319 L 490.319 490.319 L 490.319 0 L 0 0 Z " fill="none"/><path d=" M 0 0 L 0 490.319 L 490.319 490.319 L 490.319 0 L 0 0 Z " fill="none"/><path d=" M 0 0 L 0 490.319 L 490.319 490.319 L 490.319 0 L 0 0 Z " fill="none"/><path d=" M 0 0 L 0 490.319 L 490.319 490.319 L 490.319 0 L 0 0 Z " fill="none"/><path d=" M 0 0 L 0 490.319 L 490.319 490.319 L 490.319 0 L 0 0 Z " fill="none"/><path d=" M 0 0 L 0 490.319 L 490.319 490.319 L 490.319 0 L 0 0 Z " fill="none"/><path d=" M 0 0 L 0 490.319 L 490.319 490.319 L 490.319 0 L 0 0 Z " fill="none"/><path d=" M 0 0 L 0 490.319 L 490.319 490.319 L 490.319 0 L 0 0 Z " fill="none"/><path d=" M 0 0 L 0 490.319 L 490.319 490.319 L 490.319 0 L 0 0 Z " fill="none"/><clipPath id="_clipPath_1PSRSng5PyuDp3w3d7TNkFoYOlsvt9EZ"><path d=" M 0 0 L 0 490.319 L 490.319 490.319 L 490.319 0 L 0 0 Z " fill="rgb(255,255,255)"/></clipPath><g clip-path="url(#_clipPath_1PSRSng5PyuDp3w3d7TNkFoYOlsvt9EZ)"><line x1="240.297" y1="465.023" x2="240.295" y2="465.011"/></g><clipPath id="_clipPath_xHjcvXZVihGE6be9NyMeVo9TSjEdpMKs"><path d=" M 0 0 L 0 490.319 L 490.319 490.319 L 490.319 0 L 0 0 Z " fill="rgb(255,255,255)"/></clipPath><g clip-path="url(#_clipPath_xHjcvXZVihGE6be9NyMeVo9TSjEdpMKs)"><path d=" M 240.382 465.556 L 240.384 465.556 C 240.351 465.404 240.327 465.254 240.307 465.105 C 240.327 465.255 240.351 465.406 240.382 465.556 Z " fill="rgb(93,96,97)"/></g><clipPath id="_clipPath_Sf8Rv6ynQsH7r1hD49BwAzTC556BJo3K"><path d=" M 0 0 L 0 490.319 L 490.319 490.319 L 490.319 0 L 0 0 Z " fill="rgb(255,255,255)"/></clipPath><g clip-path="url(#_clipPath_Sf8Rv6ynQsH7r1hD49BwAzTC556BJo3K)"><line x1="240.936" y1="467.1" x2="240.925" y2="467.079"/></g><clipPath id="_clipPath_i9IRRb2bLqFKjmSANZ18DKFUPuOW58bQ"><path d=" M 0 0 L 0 490.319 L 490.319 490.319 L 490.319 0 L 0 0 Z " fill="rgb(255,255,255)"/></clipPath><g clip-path="url(#_clipPath_i9IRRb2bLqFKjmSANZ18DKFUPuOW58bQ)"><line x1="240.883" y1="466.997" x2="240.841" y2="466.911"/></g><clipPath id="_clipPath_fv6K9Y1KZpp6YiGQlQJQB0SLY2QBDdKM"><path d=" M 0 0 L 0 490.319 L 490.319 490.319 L 490.319 0 L 0 0 Z " fill="rgb(255,255,255)"/></clipPath><g clip-path="url(#_clipPath_fv6K9Y1KZpp6YiGQlQJQB0SLY2QBDdKM)"><path d=" M 240.538 466.151 C 240.62 466.408 240.718 466.656 240.833 466.894 C 240.716 466.651 240.62 466.402 240.54 466.151 L 240.538 466.151 Z " fill="rgb(93,96,97)"/></g><path d=" M 0 0 L 0 490.319 L 490.319 490.319 L 490.319 0 L 0 0 Z " fill="none"/><path d=" M 0 0 L 0 490.319 L 490.319 490.319 L 490.319 0 L 0 0 Z " fill="none"/><path d=" M 0 0 L 0 490.319 L 490.319 490.319 L 490.319 0 L 0 0 Z " fill="none"/><path d=" M 0 0 L 0 490.319 L 490.319 490.319 L 490.319 0 L 0 0 Z " fill="none"/><path d=" M 0 0 L 0 490.319 L 490.319 490.319 L 490.319 0 L 0 0 Z " fill="none"/><path d=" M 0 0 L 0 490.319 L 490.319 490.319 L 490.319 0 L 0 0 Z " fill="none"/><path d=" M 0 0 L 0 490.319 L 490.319 490.319 L 490.319 0 L 0 0 Z " fill="none"/><path d=" M 0 0 L 0 490.319 L 490.319 490.319 L 490.319 0 L 0 0 Z " fill="none"/><path d=" M 0 0 L 0 490.319 L 490.319 490.319 L 490.319 0 L 0 0 Z " fill="none"/><path d=" M 0 0 L 0 490.319 L 490.319 490.319 L 490.319 0 L 0 0 Z " fill="none"/><path d=" M 0 0 L 0 490.319 L 490.319 490.319 L 490.319 0 L 0 0 Z " fill="none"/><clipPath id="_clipPath_VfSktSKmQovDZYLDskv28pyPKdvHf0kD"><path d=" M 0 0 L 0 490.319 L 490.319 490.319 L 490.319 0 L 0 0 Z " fill="rgb(255,255,255)"/></clipPath><g clip-path="url(#_clipPath_VfSktSKmQovDZYLDskv28pyPKdvHf0kD)"><path d=" M 241.553 444.229 C 210.174 444.229 184.736 439.77 184.736 434.27 C 184.736 428.77 210.174 424.311 241.553 424.311 C 272.931 424.311 298.369 428.77 298.369 434.27 C 298.369 439.77 272.931 444.229 241.553 444.229 Z " fill="rgb(151,153,154)"/></g><clipPath id="_clipPath_6YLvRQLph2CAxsNF12VNmEOrA57zftbP"><path d=" M 0 0 L 0 490.319 L 490.319 490.319 L 490.319 0 L 0 0 Z " fill="rgb(255,255,255)"/></clipPath><g clip-path="url(#_clipPath_6YLvRQLph2CAxsNF12VNmEOrA57zftbP)"><path d=" M 263.669 402.157 C 263.669 402.157 263.4 426.81 260.122 430.352 L 256.387 430.519 C 256.387 430.519 254.397 406.642 253.404 398.155 C 252.41 389.67 263.669 402.157 263.669 402.157 Z " fill="rgb(249,184,162)"/></g><clipPath id="_clipPath_6S79d6XTBP9tu1ZKTpWKaxM1mtt0cqRc"><path d=" M 0 0 L 0 490.319 L 490.319 490.319 L 490.319 0 L 0 0 Z " fill="rgb(255,255,255)"/></clipPath><g clip-path="url(#_clipPath_6S79d6XTBP9tu1ZKTpWKaxM1mtt0cqRc)"><path d=" M 262.082 424.311 C 262.082 424.311 283.222 427.618 283.681 431.559 C 284.141 435.499 254.973 433.696 254.973 433.696 L 255.884 424.589 C 255.884 424.589 258.536 428.421 262.082 424.311 Z " fill="rgb(254,254,254)"/></g><clipPath id="_clipPath_Zp6NyxYQgNnc48NsE51M1YpzQOArinzE"><path d=" M 0 0 L 0 490.319 L 490.319 490.319 L 490.319 0 L 0 0 Z " fill="rgb(255,255,255)"/></clipPath><g clip-path="url(#_clipPath_Zp6NyxYQgNnc48NsE51M1YpzQOArinzE)"><path d=" M 215.931 402.157 C 215.931 402.157 216.2 426.81 219.478 430.352 L 223.214 430.519 C 223.214 430.519 225.203 406.642 226.197 398.155 C 227.19 389.67 215.931 402.157 215.931 402.157 Z " fill="rgb(249,184,162)"/></g><clipPath id="_clipPath_XwGI7zEpnR3S9By8rxdg65cXlCgVoKII"><path d=" M 0 0 L 0 490.319 L 490.319 490.319 L 490.319 0 L 0 0 Z " fill="rgb(255,255,255)"/></clipPath><g clip-path="url(#_clipPath_XwGI7zEpnR3S9By8rxdg65cXlCgVoKII)"><path d=" M 255.905 201.468 L 252.811 217.64 L 263.193 218.138 L 266.945 203.254 L 255.905 201.468 Z " fill="rgb(232,151,130)"/></g><clipPath id="_clipPath_ferinwQvob8AcB2tx3HIAmGyxF7DxJ8M"><path d=" M 0 0 L 0 490.319 L 490.319 490.319 L 490.319 0 L 0 0 Z " fill="rgb(255,255,255)"/></clipPath><g clip-path="url(#_clipPath_ferinwQvob8AcB2tx3HIAmGyxF7DxJ8M)"><path d=" M 237.881 205.638 C 237.881 205.638 278.004 205.445 278.882 214.407 L 281.662 178.589 L 241.943 177.259 L 237.881 205.638 Z " fill="rgb(192,113,90)"/></g><clipPath id="_clipPath_nbahOm2UyJEtEX4R6x9odDxZhDLPg30e"><path d=" M 0 0 L 0 490.319 L 490.319 490.319 L 490.319 0 L 0 0 Z " fill="rgb(255,255,255)"/></clipPath><g clip-path="url(#_clipPath_nbahOm2UyJEtEX4R6x9odDxZhDLPg30e)"><path d=" M 220.409 280.914 C 220.409 280.914 208.35 302.184 215.517 403.955 L 227.072 404.944 C 227.072 404.944 232.039 340.822 242.998 309.359 L 252.105 404.944 L 265.016 404.944 C 265.016 404.944 271.761 296.069 267.545 281.947 C 263.33 267.826 220.409 280.914 220.409 280.914 Z " fill="rgb(77,103,122)"/></g><clipPath id="_clipPath_acHLksoAzJWvdLCBk2FkMdVjU2T4qfzu"><path d=" M 0 0 L 0 490.319 L 490.319 490.319 L 490.319 0 L 0 0 Z " fill="rgb(255,255,255)"/></clipPath><g clip-path="url(#_clipPath_acHLksoAzJWvdLCBk2FkMdVjU2T4qfzu)"><path d=" M 218.044 285.8 C 218.044 285.8 238.82 299.211 268.924 293.275 C 268.924 293.275 273.588 251.88 276.132 241.704 L 294.364 264.599 L 273.164 279.59 L 276.98 288.495 C 276.98 288.495 307.085 269.688 306.66 264.176 C 306.236 258.664 282.492 228.56 282.492 228.56 C 282.492 228.56 275.708 219.231 267.229 218.384 L 267.652 212.447 L 250.268 208.632 L 248.997 216.264 C 248.997 216.264 236.7 215.416 233.308 220.504 C 229.916 225.592 209.988 249.508 209.988 249.508 L 184.548 247.104 L 184.548 254.988 C 184.548 254.988 212.956 262.056 218.044 258.24 C 223.132 254.423 235.984 234.071 235.984 234.071 C 235.984 234.071 221.859 264.091 218.044 285.8 Z " fill="rgb(226,131,134)"/></g><clipPath id="_clipPath_Y1sOYtGLb6E3tFACDK67AwX1XljfXdf3"><path d=" M 0 0 L 0 490.319 L 490.319 490.319 L 490.319 0 L 0 0 Z " fill="rgb(255,255,255)"/></clipPath><g clip-path="url(#_clipPath_Y1sOYtGLb6E3tFACDK67AwX1XljfXdf3)"><path d=" M 252.668 167.047 C 252.668 167.047 231.281 189.684 247.23 203.999 C 263.18 218.314 277.853 204.362 280.58 194.345 C 286.018 174.37 270.068 152.731 252.668 167.047 Z " fill="rgb(249,184,162)"/></g><clipPath id="_clipPath_aC4fgJutalYvrJ8rQrH4CwsoEAwmxEq6"><path d=" M 0 0 L 0 490.319 L 490.319 490.319 L 490.319 0 L 0 0 Z " fill="rgb(255,255,255)"/></clipPath><g clip-path="url(#_clipPath_aC4fgJutalYvrJ8rQrH4CwsoEAwmxEq6)"><path d=" M 280.39 194.991 L 280.39 194.991 C 280.455 194.781 280.517 194.573 280.574 194.366 C 280.517 194.573 280.456 194.781 280.39 194.991 Z " fill="rgb(193,163,143)"/></g><clipPath id="_clipPath_vmCJiuhPEEcirZp5LlRskSzim9AgJZZk"><path d=" M 0 0 L 0 490.319 L 490.319 490.319 L 490.319 0 L 0 0 Z " fill="rgb(255,255,255)"/></clipPath><g clip-path="url(#_clipPath_vmCJiuhPEEcirZp5LlRskSzim9AgJZZk)"><path d=" M 280.366 195.064 C 280.374 195.039 280.382 195.015 280.39 194.991 L 280.39 194.991 C 280.382 195.015 280.374 195.04 280.366 195.064 Z " fill="rgb(234,149,124)"/></g><clipPath id="_clipPath_WnllPQdOJc6o1h1PxxWWCaA0kGRJRIqu"><path d=" M 0 0 L 0 490.319 L 490.319 490.319 L 490.319 0 L 0 0 Z " fill="rgb(255,255,255)"/></clipPath><g clip-path="url(#_clipPath_WnllPQdOJc6o1h1PxxWWCaA0kGRJRIqu)"><path d=" M 280.58 194.345 L 280.58 194.345 C 280.584 194.332 280.588 194.317 280.591 194.303 C 280.588 194.317 280.584 194.332 280.58 194.345 L 280.58 194.345 Z  M 280.594 194.295 C 280.597 194.282 280.601 194.27 280.603 194.258 C 280.601 194.27 280.597 194.282 280.594 194.295 Z  M 280.604 194.253 C 280.608 194.239 280.612 194.225 280.616 194.21 C 280.612 194.224 280.608 194.239 280.604 194.253 Z  M 280.617 194.206 C 280.62 194.195 280.624 194.18 280.627 194.168 C 280.624 194.181 280.62 194.194 280.617 194.206 Z  M 280.629 194.16 C 280.637 194.132 280.644 194.105 280.652 194.076 C 280.645 194.103 280.637 194.133 280.629 194.16 Z  M 280.653 194.07 C 280.661 194.041 280.668 194.012 280.676 193.984 C 280.668 194.012 280.661 194.041 280.653 194.07 Z  M 280.677 193.981 C 281.714 189.978 281.898 185.917 281.389 182.101 L 281.389 182.101 C 281.898 185.918 281.714 189.977 280.677 193.981 Z " fill="rgb(193,163,143)"/></g><clipPath id="_clipPath_jHOz8fI4Dztsrq0kkA9aOaK4jYa6Yfjb"><path d=" M 0 0 L 0 490.319 L 490.319 490.319 L 490.319 0 L 0 0 Z " fill="rgb(255,255,255)"/></clipPath><g clip-path="url(#_clipPath_jHOz8fI4Dztsrq0kkA9aOaK4jYa6Yfjb)"><path d=" M 281.389 182.101 C 281.383 182.057 281.377 182.01 281.371 181.966 C 281.377 182.01 281.383 182.056 281.389 182.101 L 281.389 182.101 Z  M 281.37 181.961 C 281.368 181.949 281.366 181.937 281.365 181.925 C 281.367 181.937 281.368 181.949 281.37 181.961 Z  M 281.364 181.919 C 281.362 181.906 281.361 181.893 281.359 181.88 C 281.361 181.893 281.362 181.906 281.364 181.919 Z  M 281.358 181.872 C 281.357 181.862 281.355 181.852 281.354 181.843 C 281.355 181.852 281.357 181.862 281.358 181.872 Z  M 281.352 181.828 C 281.351 181.82 281.35 181.813 281.349 181.805 C 281.35 181.813 281.351 181.82 281.352 181.828 Z  M 281.344 181.775 C 281.343 181.769 281.342 181.763 281.342 181.757 C 281.343 181.763 281.343 181.769 281.344 181.775 Z  M 281.338 181.736 C 281.338 181.732 281.337 181.727 281.337 181.724 C 281.337 181.727 281.338 181.732 281.338 181.736 Z  M 281.324 181.641 C 281.324 181.64 281.324 181.639 281.324 181.638 C 281.324 181.639 281.324 181.64 281.324 181.641 Z " fill="rgb(234,149,124)"/></g><clipPath id="_clipPath_uRAZzvkSGGNSSgjL70usGNJNgHHz9iZq"><path d=" M 0 0 L 0 490.319 L 490.319 490.319 L 490.319 0 L 0 0 Z " fill="rgb(255,255,255)"/></clipPath><g clip-path="url(#_clipPath_uRAZzvkSGGNSSgjL70usGNJNgHHz9iZq)"><path d=" M 261.249 210.108 C 258.956 210.108 256.543 209.627 254.057 208.527 C 254.608 208.571 255.161 208.594 255.713 208.594 C 256.043 208.594 256.374 208.585 256.704 208.568 C 265.662 208.076 271.399 202.399 274.695 194.472 C 277.254 188.319 276.885 180.895 276.196 174.436 C 275.877 171.429 274.933 168.627 273.5 166.171 C 277.524 169.673 280.381 175.297 281.324 181.638 C 281.324 181.639 281.324 181.64 281.324 181.641 C 281.328 181.668 281.332 181.695 281.337 181.724 C 281.337 181.727 281.338 181.732 281.338 181.736 C 281.339 181.742 281.341 181.75 281.342 181.757 C 281.342 181.763 281.343 181.769 281.344 181.775 C 281.346 181.785 281.347 181.795 281.349 181.805 C 281.35 181.813 281.351 181.82 281.352 181.828 C 281.353 181.833 281.353 181.838 281.354 181.843 C 281.355 181.852 281.357 181.862 281.358 181.872 C 281.359 181.874 281.359 181.877 281.359 181.88 C 281.361 181.893 281.362 181.906 281.364 181.919 C 281.364 181.921 281.365 181.923 281.365 181.925 C 281.366 181.937 281.368 181.949 281.37 181.961 C 281.37 181.963 281.37 181.964 281.371 181.966 C 281.377 182.01 281.383 182.057 281.389 182.101 C 281.898 185.917 281.714 189.978 280.677 193.981 C 280.676 193.981 280.676 193.983 280.676 193.984 C 280.668 194.012 280.661 194.041 280.653 194.07 C 280.653 194.072 280.653 194.074 280.652 194.076 C 280.644 194.105 280.637 194.132 280.629 194.16 C 280.629 194.163 280.628 194.165 280.627 194.168 C 280.624 194.18 280.62 194.195 280.617 194.206 C 280.617 194.208 280.616 194.208 280.616 194.21 C 280.612 194.225 280.608 194.239 280.604 194.253 C 280.604 194.255 280.603 194.256 280.603 194.258 C 280.601 194.27 280.597 194.282 280.594 194.295 C 280.593 194.298 280.592 194.301 280.591 194.303 C 280.588 194.317 280.584 194.332 280.58 194.345 L 280.58 194.345 C 280.578 194.352 280.576 194.359 280.574 194.366 C 280.517 194.573 280.455 194.781 280.39 194.991 C 280.382 195.015 280.374 195.039 280.366 195.064 C 278.166 201.881 270.727 210.108 261.249 210.108 Z " fill="rgb(247,171,147)"/></g><clipPath id="_clipPath_qxEcGiM4b8OqEnCr5uyJwW4TS1wo471H"><path d=" M 0 0 L 0 490.319 L 490.319 490.319 L 490.319 0 L 0 0 Z " fill="rgb(255,255,255)"/></clipPath><g clip-path="url(#_clipPath_qxEcGiM4b8OqEnCr5uyJwW4TS1wo471H)"><path d=" M 254.608 166.948 C 254.608 166.948 255.913 180.556 273.462 184.03 L 271.601 179.067 C 271.601 179.067 283.169 185.305 276.321 200.672 C 276.321 200.672 270.891 209.416 272.664 216.039 C 272.664 216.039 274.208 213.31 278.488 212.069 L 276.653 216.039 C 276.653 216.039 289.682 214.054 290.48 206.114 C 291.278 198.174 299.807 170.503 280.843 158.472 C 265.981 149.043 253.304 158.798 254.608 166.948 Z " fill="rgb(229,135,104)"/></g><clipPath id="_clipPath_16lX7ScBj26LDy0TWESysShwEtcYL1PN"><path d=" M 0 0 L 0 490.319 L 490.319 490.319 L 490.319 0 L 0 0 Z " fill="rgb(255,255,255)"/></clipPath><g clip-path="url(#_clipPath_16lX7ScBj26LDy0TWESysShwEtcYL1PN)"><path d=" M 257.948 158.628 C 260.199 159.559 247.353 152.665 239.427 169.142 C 232.145 184.278 235.483 202.877 239.427 209.588 C 239.427 209.588 239.45 177.083 254.608 166.948 L 257.948 158.628 Z " fill="rgb(229,135,104)"/></g><clipPath id="_clipPath_wjv9AvWTojPJJtAnKZL0azXw4mdEEEGO"><path d=" M 0 0 L 0 490.319 L 490.319 490.319 L 490.319 0 L 0 0 Z " fill="rgb(255,255,255)"/></clipPath><g clip-path="url(#_clipPath_wjv9AvWTojPJJtAnKZL0azXw4mdEEEGO)"><path d=" M 256.303 195.488 L 250.149 190.547 L 258.422 183.413 L 256.303 195.488 Z " fill="rgb(246,159,134)"/></g><clipPath id="_clipPath_IXWP8VIofvGYTKcHJKo7lwtcj29qD7eL"><path d=" M 0 0 L 0 490.319 L 490.319 490.319 L 490.319 0 L 0 0 Z " fill="rgb(255,255,255)"/></clipPath><g clip-path="url(#_clipPath_IXWP8VIofvGYTKcHJKo7lwtcj29qD7eL)"><path d=" M 263.416 188.065 C 263.416 188.065 263.382 187.798 263.431 187.326 C 263.459 187.091 263.506 186.805 263.6 186.482 C 263.699 186.162 263.83 185.798 264.044 185.432 C 264.256 185.067 264.521 184.67 264.897 184.337 C 265.251 183.983 265.7 183.672 266.202 183.447 C 266.702 183.22 267.25 183.042 267.814 182.976 C 268.097 182.918 268.378 182.925 268.662 182.912 L 269.088 182.9 L 269.541 182.946 C 269.985 182.984 270.753 183.172 271.269 183.498 L 271.67 183.745 C 271.788 183.85 271.895 183.966 272.005 184.076 C 272.24 184.286 272.388 184.553 272.544 184.803 C 272.702 185.052 272.777 185.325 272.875 185.581 C 272.939 185.843 272.985 186.098 273.024 186.344 C 273.078 186.837 273.062 187.294 273.015 187.705 C 272.923 188.528 272.702 189.169 272.531 189.603 C 272.354 190.039 272.219 190.269 272.219 190.269 C 272.219 190.269 272.236 190.001 272.244 189.544 C 272.252 189.089 272.252 188.44 272.17 187.7 C 272.124 187.33 272.044 186.944 271.945 186.554 C 271.824 186.173 271.661 185.798 271.438 185.481 C 271.316 185.331 271.213 185.163 271.049 185.058 L 270.828 184.875 L 270.57 184.735 C 270.405 184.616 270.218 184.586 270.042 184.526 C 269.901 184.449 269.607 184.435 269.353 184.405 L 269.159 184.377 L 269.063 184.365 L 269.014 184.358 L 268.991 184.354 L 268.979 184.353 C 269.005 184.355 268.911 184.346 269.036 184.357 L 269.031 184.357 L 268.679 184.358 C 268.445 184.361 268.207 184.343 267.985 184.385 C 267.532 184.432 267.092 184.5 266.692 184.643 C 266.296 184.788 265.912 184.95 265.592 185.183 C 265.259 185.398 264.979 185.661 264.729 185.921 C 264.239 186.452 263.913 187.006 263.71 187.408 C 263.505 187.811 263.416 188.065 263.416 188.065 Z " fill="rgb(90,92,93)"/></g><clipPath id="_clipPath_9WrTXVvpB4gOcJfy00oTXmHsjIEvNtGp"><path d=" M 0 0 L 0 490.319 L 490.319 490.319 L 490.319 0 L 0 0 Z " fill="rgb(255,255,255)"/></clipPath><g clip-path="url(#_clipPath_9WrTXVvpB4gOcJfy00oTXmHsjIEvNtGp)"><path d=" M 245.751 183.07 C 245.751 183.07 245.728 182.803 245.799 182.334 C 245.837 182.1 245.896 181.816 246.004 181.497 C 246.117 181.183 246.264 180.826 246.494 180.469 C 246.722 180.114 247.004 179.728 247.394 179.412 C 247.764 179.074 248.226 178.784 248.738 178.581 C 249.248 178.376 249.804 178.223 250.369 178.182 C 250.655 178.136 250.935 178.155 251.22 178.155 L 251.646 178.162 L 252.095 178.228 C 252.538 178.286 253.297 178.507 253.798 178.855 L 254.187 179.12 C 254.3 179.229 254.403 179.351 254.508 179.465 C 254.733 179.686 254.869 179.959 255.014 180.216 C 255.162 180.472 255.224 180.748 255.31 181.007 C 255.362 181.271 255.397 181.53 255.426 181.777 C 255.458 182.271 255.422 182.727 255.356 183.136 C 255.229 183.953 254.979 184.584 254.788 185.011 C 254.593 185.438 254.447 185.662 254.447 185.662 C 254.447 185.662 254.476 185.395 254.504 184.939 C 254.533 184.485 254.563 183.837 254.512 183.094 C 254.482 182.722 254.42 182.332 254.339 181.939 C 254.234 181.552 254.088 181.171 253.879 180.843 C 253.763 180.689 253.668 180.517 253.508 180.404 L 253.297 180.212 L 253.045 180.061 C 252.886 179.934 252.699 179.897 252.527 179.828 C 252.389 179.745 252.095 179.718 251.843 179.677 L 251.651 179.641 L 251.556 179.623 L 251.508 179.615 L 251.483 179.611 L 251.472 179.608 C 251.498 179.612 251.405 179.599 251.53 179.615 L 251.524 179.615 L 251.172 179.6 C 250.938 179.593 250.701 179.564 250.477 179.598 C 250.023 179.624 249.581 179.671 249.175 179.798 C 248.772 179.924 248.382 180.07 248.051 180.287 C 247.711 180.488 247.418 180.738 247.157 180.987 C 246.644 181.496 246.294 182.035 246.074 182.427 C 245.851 182.821 245.751 183.07 245.751 183.07 Z " fill="rgb(90,92,93)"/></g><clipPath id="_clipPath_8authEqnfNVUi5MAYRWfaqu5W6AO3U6z"><path d=" M 0 0 L 0 490.319 L 490.319 490.319 L 490.319 0 L 0 0 Z " fill="rgb(255,255,255)"/></clipPath><g clip-path="url(#_clipPath_8authEqnfNVUi5MAYRWfaqu5W6AO3U6z)"><line x1="249.286" y1="196.307" x2="266.304" y2="199.063"/></g><clipPath id="_clipPath_0UMjWXjo8MYGfg2Pv7Jdb5u4xMFv1yHU"><path d=" M 0 0 L 0 490.319 L 490.319 490.319 L 490.319 0 L 0 0 Z " fill="rgb(255,255,255)"/></clipPath><g clip-path="url(#_clipPath_0UMjWXjo8MYGfg2Pv7Jdb5u4xMFv1yHU)"><path d=" M 273.658 280.743 L 271.713 282.411 C 271.713 282.411 265.617 276.623 262.14 277.744 C 262.14 277.744 254.296 285.588 256.84 285.163 C 259.384 284.74 261.928 282.173 261.928 282.173 C 261.928 282.173 252.863 294.279 264.709 283.468 C 264.709 283.468 260.232 291.947 262.352 290.464 C 264.472 288.98 267.229 284.899 267.229 284.899 C 267.229 284.899 268.712 289.616 270.408 289.192 C 272.104 288.768 275.983 286.167 275.983 286.167 L 273.658 280.743 Z " fill="rgb(249,184,162)"/></g><clipPath id="_clipPath_GGHmOXV3bDB6kbRIv3XxlCAIUVb4Lq2q"><path d=" M 0 0 L 0 490.319 L 490.319 490.319 L 490.319 0 L 0 0 Z " fill="rgb(255,255,255)"/></clipPath><g clip-path="url(#_clipPath_GGHmOXV3bDB6kbRIv3XxlCAIUVb4Lq2q)"><path d=" M 176.742 240.22 C 174.958 240.443 179.15 246.535 179.152 246.537 C 178.587 246.455 178.002 246.369 177.406 246.284 C 169.733 245.189 160.385 244.959 174.289 248.249 C 174.289 248.249 156.893 248.472 173.396 250.256 C 173.396 250.256 158.231 253.379 174.066 253.155 C 174.066 253.155 163.584 256.799 174.066 255.832 C 184.548 254.864 184.548 253.824 184.548 253.824 L 184.548 247.357 C 184.548 247.357 178.526 239.997 176.742 240.22 Z " fill="rgb(249,184,162)"/></g><clipPath id="_clipPath_FFJZao0FT0mWxXf3K5waaR394071hcbq"><path d=" M 0 0 L 0 490.319 L 490.319 490.319 L 490.319 0 L 0 0 Z " fill="rgb(255,255,255)"/></clipPath><g clip-path="url(#_clipPath_FFJZao0FT0mWxXf3K5waaR394071hcbq)"><path d=" M 212.92 397.495 L 228.413 398.319 L 227.414 406.41 L 213.488 405.72 L 212.92 397.495 Z " fill="rgb(94,118,134)"/></g><clipPath id="_clipPath_2gJfFFPolJvRReGKchtZi0NUYMfwryOp"><path d=" M 0 0 L 0 490.319 L 490.319 490.319 L 490.319 0 L 0 0 Z " fill="rgb(255,255,255)"/></clipPath><g clip-path="url(#_clipPath_2gJfFFPolJvRReGKchtZi0NUYMfwryOp)"><path d=" M 250.664 397.495 L 266.158 398.319 L 265.157 406.41 L 251.231 405.72 L 250.664 397.495 Z " fill="rgb(94,118,134)"/></g><clipPath id="_clipPath_yJ4g8Zj8uwhUAEm2oHhb6NFoxOObea9J"><path d=" M 0 0 L 0 490.319 L 490.319 490.319 L 490.319 0 L 0 0 Z " fill="rgb(255,255,255)"/></clipPath><g clip-path="url(#_clipPath_yJ4g8Zj8uwhUAEm2oHhb6NFoxOObea9J)"><path d=" M 217.518 424.311 C 217.518 424.311 196.379 427.618 195.92 431.559 C 195.46 435.499 224.628 433.696 224.628 433.696 L 223.717 424.589 C 223.717 424.589 221.065 428.421 217.518 424.311 Z " fill="rgb(254,254,254)"/></g><clipPath id="_clipPath_rluH3Mvj2cT8H9VIDQ3IaPWJVtkxVZHL"><path d=" M 0 0 L 0 490.319 L 490.319 490.319 L 490.319 0 L 0 0 Z " fill="rgb(255,255,255)"/></clipPath><g clip-path="url(#_clipPath_rluH3Mvj2cT8H9VIDQ3IaPWJVtkxVZHL)"><path d=" M 119.234 178.653 C 119.904 178.653 126.596 191.153 126.596 191.153 L 120.795 194.118 L 119.234 178.653 Z " fill="rgb(249,184,162)"/></g><clipPath id="_clipPath_ycpWdbeSnDZlvTDxPUnyKY7DYtXeN8ct"><path d=" M 0 0 L 0 490.319 L 490.319 490.319 L 490.319 0 L 0 0 Z " fill="rgb(255,255,255)"/></clipPath><g clip-path="url(#_clipPath_ycpWdbeSnDZlvTDxPUnyKY7DYtXeN8ct)"><path d=" M 115.667 445.784 C 86.394 445.784 62.663 441.624 62.663 436.493 C 62.663 431.363 86.394 427.203 115.667 427.203 C 144.94 427.203 168.671 431.363 168.671 436.493 C 168.671 441.624 144.94 445.784 115.667 445.784 Z " fill="rgb(151,153,154)"/></g><clipPath id="_clipPath_HGxFcg6S7DnhxLlYikZD9v7z99ydxIBb"><path d=" M 0 0 L 0 490.319 L 490.319 490.319 L 490.319 0 L 0 0 Z " fill="rgb(255,255,255)"/></clipPath><g clip-path="url(#_clipPath_HGxFcg6S7DnhxLlYikZD9v7z99ydxIBb)"><path d=" M 164.097 261.884 C 165.762 262.093 161.851 267.776 161.849 267.778 C 162.377 267.701 162.921 267.622 163.478 267.542 C 170.637 266.52 179.357 266.306 166.386 269.375 C 166.386 269.375 182.614 269.583 167.218 271.247 C 167.218 271.247 181.366 274.16 166.594 273.952 C 166.594 273.952 176.373 277.352 166.594 276.449 C 156.816 275.546 156.816 274.576 156.816 274.576 L 156.816 268.543 C 156.816 268.543 162.433 261.676 164.097 261.884 Z " fill="rgb(249,184,162)"/></g><clipPath id="_clipPath_voOOY9umkgSeAEPquSk9zmOuMXs0usWM"><path d=" M 0 0 L 0 490.319 L 490.319 490.319 L 490.319 0 L 0 0 Z " fill="rgb(255,255,255)"/></clipPath><g clip-path="url(#_clipPath_voOOY9umkgSeAEPquSk9zmOuMXs0usWM)"><path d=" M 113.976 195.614 L 121.738 195.614 C 123.133 184.225 118.395 167.776 118.395 167.776 C 104.935 161.054 98.079 206.084 98.079 206.084 C 98.079 206.084 106.393 211.345 116.908 205.219 C 118.552 204.26 119.719 202.686 120.516 200.711 C 115.144 200.094 113.976 195.614 113.976 195.614 Z " fill="rgb(249,184,162)"/></g><clipPath id="_clipPath_m0eLUrZUTEgXzeRQVRRtNTX78xe397Ic"><path d=" M 0 0 L 0 490.319 L 490.319 490.319 L 490.319 0 L 0 0 Z " fill="rgb(255,255,255)"/></clipPath><g clip-path="url(#_clipPath_m0eLUrZUTEgXzeRQVRRtNTX78xe397Ic)"><path d=" M 90.213 203.228 L 90.213 216.979 L 104.49 216.979 L 105.445 203.228 L 90.213 203.228 Z " fill="rgb(249,184,162)"/></g><clipPath id="_clipPath_tNALTu4TF0cock4meERV7aoBVsicbCyL"><path d=" M 0 0 L 0 490.319 L 490.319 490.319 L 490.319 0 L 0 0 Z " fill="rgb(255,255,255)"/></clipPath><g clip-path="url(#_clipPath_tNALTu4TF0cock4meERV7aoBVsicbCyL)"><path d=" M 75.645 220.252 C 69.456 230.067 56.23 270.418 60.6 272.237 C 64.97 274.056 73.209 277.982 73.209 277.982 C 73.209 277.982 82.533 217.431 75.645 220.252 Z " fill="rgb(199,176,175)"/></g><clipPath id="_clipPath_lKsxZ3Vt0m0SzR4CiTNtr2ay7zUj7o9j"><path d=" M 0 0 L 0 490.319 L 490.319 490.319 L 490.319 0 L 0 0 Z " fill="rgb(255,255,255)"/></clipPath><g clip-path="url(#_clipPath_lKsxZ3Vt0m0SzR4CiTNtr2ay7zUj7o9j)"><path d=" M 75.283 231.371 C 75.283 231.371 63.412 273.027 66.084 274.537 C 68.756 276.047 73.209 277.982 73.209 277.982 L 75.283 231.371 Z " fill="rgb(164,147,147)"/></g><clipPath id="_clipPath_8oerF2dmH5CYTTT6kdwQ8iGcbVWfNGqM"><path d=" M 0 0 L 0 490.319 L 490.319 490.319 L 490.319 0 L 0 0 Z " fill="rgb(255,255,255)"/></clipPath><g clip-path="url(#_clipPath_8oerF2dmH5CYTTT6kdwQ8iGcbVWfNGqM)"><path d=" M 84.198 218.562 L 87.111 212.294 C 87.111 212.294 100.803 209.964 106.921 212.294 L 106.921 219.869 L 84.198 218.562 Z " fill="rgb(245,249,244)"/></g><clipPath id="_clipPath_klntg7wGqeciYiewt2qBvVRlc0jDIVlf"><path d=" M 0 0 L 0 490.319 L 490.319 490.319 L 490.319 0 L 0 0 Z " fill="rgb(255,255,255)"/></clipPath><g clip-path="url(#_clipPath_klntg7wGqeciYiewt2qBvVRlc0jDIVlf)"><path d=" M 122.262 357.074 L 122.262 357.074 L 124.16 333.585 L 103.484 333.585 L 108.555 354.898 C 108.555 354.898 105.547 368.372 108.555 381.845 C 111.561 395.318 122.588 435.74 122.588 435.74 L 128.602 435.74 L 122.262 357.074 Z " fill="rgb(97,90,88)"/></g><clipPath id="_clipPath_r9a2J83azILa8htWjHnpB92vauagnMyN"><path d=" M 0 0 L 0 490.319 L 490.319 490.319 L 490.319 0 L 0 0 Z " fill="rgb(255,255,255)"/></clipPath><g clip-path="url(#_clipPath_r9a2J83azILa8htWjHnpB92vauagnMyN)"><path d=" M 119.83 426.264 C 119.83 426.264 123.552 428.174 128.408 422.925 C 128.408 422.925 139.381 431.224 145.062 431.662 L 145.062 435.74 L 119.83 435.74 L 119.83 426.264 Z " fill="rgb(61,53,55)"/></g><clipPath id="_clipPath_TibjhDa0LZt98qVy4S9QbuOmvV6FOodO"><path d=" M 0 0 L 0 490.319 L 490.319 490.319 L 490.319 0 L 0 0 Z " fill="rgb(255,255,255)"/></clipPath><g clip-path="url(#_clipPath_TibjhDa0LZt98qVy4S9QbuOmvV6FOodO)"><path d=" M 98.668 357.179 L 98.668 357.179 L 102.73 333.955 L 80.678 332.036 L 84.238 353.739 C 84.238 353.739 79.863 366.884 81.902 380.585 C 83.941 394.288 92.196 435.579 92.196 435.579 L 98.61 436.137 L 98.668 357.179 Z " fill="rgb(97,90,88)"/></g><clipPath id="_clipPath_oVAegfYhsxvO1VgS7fGo4DGt9RAvMO1z"><path d=" M 0 0 L 0 490.319 L 490.319 490.319 L 490.319 0 L 0 0 Z " fill="rgb(255,255,255)"/></clipPath><g clip-path="url(#_clipPath_oVAegfYhsxvO1VgS7fGo4DGt9RAvMO1z)"><path d=" M 90.358 426.174 C 90.358 426.174 94.096 428.053 98.908 422.765 C 98.908 422.765 109.949 430.972 115.633 431.363 L 115.667 435.441 L 90.436 435.649 L 90.358 426.174 Z " fill="rgb(61,53,55)"/></g><clipPath id="_clipPath_eigcjVkrU9brFUNjbjcC2dsMr8h1840M"><path d=" M 0 0 L 0 490.319 L 490.319 490.319 L 490.319 0 L 0 0 Z " fill="rgb(255,255,255)"/></clipPath><g clip-path="url(#_clipPath_eigcjVkrU9brFUNjbjcC2dsMr8h1840M)"><path d=" M 142.81 304.662 L 139.04 304.662 C 139.04 294.374 131.552 273.375 131.461 273.164 L 133.639 272.237 C 134.014 273.115 142.81 293.891 142.81 304.662 Z " fill="rgb(67,58,58)"/></g><clipPath id="_clipPath_M3Gh4dU69YksuMkQwME3qx4hblGBKnGb"><path d=" M 0 0 L 0 490.319 L 490.319 490.319 L 490.319 0 L 0 0 Z " fill="rgb(255,255,255)"/></clipPath><g clip-path="url(#_clipPath_M3Gh4dU69YksuMkQwME3qx4hblGBKnGb)"><path d=" M 73.478 291.013 C 73.478 291.013 73.915 335.697 77.411 341.377 C 77.411 341.377 108.874 351.155 126.791 337.882 L 121.271 292.782 L 73.478 291.013 Z " fill="rgb(164,147,147)"/></g><clipPath id="_clipPath_rWwscPGr6tm2LPAJMQoNmhA9GmSweGWc"><path d=" M 0 0 L 0 490.319 L 490.319 490.319 L 490.319 0 L 0 0 Z " fill="rgb(255,255,255)"/></clipPath><g clip-path="url(#_clipPath_rWwscPGr6tm2LPAJMQoNmhA9GmSweGWc)"><path d=" M 119.781 220.252 C 119.781 220.252 95.747 208.966 75.645 220.252 C 75.645 220.252 66.989 279.926 72.104 306.583 C 72.104 306.583 90.521 317.956 125.043 308.685 C 125.043 308.685 121.11 267.569 120.236 252.654 C 120.236 252.654 124.606 277.243 131.16 279.259 C 137.715 281.274 159.128 277.243 159.128 277.243 L 156.068 266.36 C 156.068 266.36 141.648 268.778 139.463 267.166 C 137.278 265.554 128.958 225.493 119.781 220.252 Z " fill="rgb(199,176,175)"/></g><clipPath id="_clipPath_xuwdu1Ohs30Bdqra5OoFv9Afxc4uuvMW"><path d=" M 0 0 L 0 490.319 L 490.319 490.319 L 490.319 0 L 0 0 Z " fill="rgb(255,255,255)"/></clipPath><g clip-path="url(#_clipPath_xuwdu1Ohs30Bdqra5OoFv9Afxc4uuvMW)"><path d=" M 100.15 305.895 L 99.649 305.837 L 99.949 303.489 C 99.362 303.417 98.921 303.78 98.794 304.064 C 97.324 303.598 100.199 300.156 104.148 265.463 C 108.135 230.425 112.791 220.681 115.995 218.676 C 116.993 218.052 119.575 220.18 119.781 220.252 C 119.961 220.317 118.158 219.964 118.161 219.964 C 118.102 219.975 111.094 219.207 106.499 265.732 C 102.679 304.424 101.007 305.222 100.539 305.589 L 100.15 305.895 Z " fill="rgb(67,58,58)"/></g><clipPath id="_clipPath_B2r0R2Aia8HmLSmZnAWPgSnMQL00Ig2v"><path d=" M 0 0 L 0 490.319 L 490.319 490.319 L 490.319 0 L 0 0 Z " fill="rgb(255,255,255)"/></clipPath><g clip-path="url(#_clipPath_B2r0R2Aia8HmLSmZnAWPgSnMQL00Ig2v)"><path d=" M 99.799 300.322 C 99.799 300.322 142.021 295.982 144.388 300.322 C 146.756 304.662 150.307 331.1 141.627 332.678 C 132.945 334.257 104.534 342.149 99.799 330.311 C 95.064 318.474 95.565 300.722 99.799 300.322 Z " fill="rgb(81,72,72)"/></g><clipPath id="_clipPath_7DJI6y0fRPbewkqbx6NpSEk5aSm4VU6D"><path d=" M 0 0 L 0 490.319 L 490.319 490.319 L 490.319 0 L 0 0 Z " fill="rgb(255,255,255)"/></clipPath><g clip-path="url(#_clipPath_7DJI6y0fRPbewkqbx6NpSEk5aSm4VU6D)"><path d=" M 105.718 320.6 C 103.183 314.261 102.15 306.229 102.386 300.072 C 100.758 300.223 99.799 300.322 99.799 300.322 C 95.565 300.722 95.064 318.474 99.799 330.311 C 104.534 342.149 132.945 334.257 141.627 332.678 C 144.839 332.095 146.374 328.102 146.915 323.087 C 137.58 324.896 110.346 332.17 105.718 320.6 Z " fill="rgb(61,53,55)"/></g><clipPath id="_clipPath_A39GU5cZlIh7cQf2ZhYuNIuyAuk9t4xb"><path d=" M 0 0 L 0 490.319 L 490.319 490.319 L 490.319 0 L 0 0 Z " fill="rgb(255,255,255)"/></clipPath><g clip-path="url(#_clipPath_A39GU5cZlIh7cQf2ZhYuNIuyAuk9t4xb)"><path d=" M 125.053 324.787 L 125.053 329.522 L 137.088 327.154 L 137.088 322.814 L 125.053 324.787 Z " fill="rgb(199,176,175)"/></g><clipPath id="_clipPath_EC8C2ITfPs3I7sFzwp89L9SA8usXwcug"><path d=" M 0 0 L 0 490.319 L 490.319 490.319 L 490.319 0 L 0 0 Z " fill="rgb(255,255,255)"/></clipPath><g clip-path="url(#_clipPath_EC8C2ITfPs3I7sFzwp89L9SA8usXwcug)"><path d=" M 95.806 205.566 C 95.806 205.566 80.135 204.724 75.131 188.73 C 69.3 170.093 86.297 155.844 100.203 157.108 C 114.108 158.372 120.839 163.007 121.476 171.013 C 122.114 179.019 113.686 185.28 109.472 184.257 L 107.604 194.576 L 105.202 184.257 C 105.202 184.257 103.975 205.206 95.806 205.566 Z " fill="rgb(217,151,90)"/></g><clipPath id="_clipPath_vX72hAHcZNPU6qPRpRcBwuPTUUDDLg22"><path d=" M 0 0 L 0 490.319 L 490.319 490.319 L 490.319 0 L 0 0 Z " fill="rgb(255,255,255)"/></clipPath><g clip-path="url(#_clipPath_vX72hAHcZNPU6qPRpRcBwuPTUUDDLg22)"><path d=" M 105.202 184.257 C 105.202 184.257 100.725 177.322 98.197 185.328 C 96.851 189.591 105.202 199.692 105.202 194.576 C 105.202 193.136 105.202 184.257 105.202 184.257 Z " fill="rgb(249,184,162)"/></g><clipPath id="_clipPath_UytFnkpTwdTZ018bErYifqGtOCPBsi5i"><path d=" M 0 0 L 0 490.319 L 490.319 490.319 L 490.319 0 L 0 0 Z " fill="rgb(255,255,255)"/></clipPath><g clip-path="url(#_clipPath_UytFnkpTwdTZ018bErYifqGtOCPBsi5i)"><path d=" M 112.655 184.37 C 112.655 184.37 112.782 184.51 112.979 184.764 C 113.079 184.887 113.19 185.055 113.324 185.219 C 113.471 185.371 113.63 185.534 113.778 185.713 C 113.951 185.88 114.161 186.039 114.341 186.223 C 114.57 186.347 114.765 186.54 115.011 186.623 C 115.238 186.755 115.486 186.802 115.722 186.876 C 115.846 186.884 115.966 186.888 116.087 186.91 C 116.207 186.914 116.327 186.887 116.447 186.885 C 116.684 186.846 116.92 186.785 117.14 186.669 C 117.259 186.63 117.359 186.553 117.463 186.481 C 117.57 186.412 117.678 186.347 117.765 186.249 C 117.962 186.083 118.135 185.89 118.289 185.682 C 118.453 185.483 118.55 185.246 118.693 185.046 C 118.797 184.82 118.892 184.613 118.977 184.429 C 119.074 184.24 119.108 184.06 119.168 183.914 C 119.274 183.618 119.35 183.437 119.35 183.437 C 119.35 183.437 119.417 183.608 119.505 183.926 C 119.537 184.085 119.623 184.284 119.62 184.514 C 119.631 184.743 119.659 185.014 119.632 185.306 C 119.576 185.592 119.563 185.929 119.419 186.251 C 119.35 186.416 119.281 186.586 119.209 186.759 C 119.126 186.93 118.998 187.083 118.887 187.251 C 118.781 187.424 118.626 187.566 118.467 187.709 C 118.312 187.856 118.151 188.002 117.949 188.101 C 117.577 188.347 117.128 188.487 116.678 188.564 C 116.448 188.576 116.216 188.603 115.99 188.587 C 115.764 188.559 115.541 188.513 115.322 188.47 C 114.905 188.321 114.507 188.145 114.197 187.882 C 113.848 187.667 113.65 187.33 113.412 187.075 C 113.227 186.78 113.069 186.499 112.956 186.226 C 112.852 185.943 112.782 185.68 112.724 185.456 C 112.672 185.237 112.681 185.042 112.665 184.882 C 112.649 184.56 112.655 184.37 112.655 184.37 Z " fill="rgb(90,92,93)"/></g><clipPath id="_clipPath_QPrIBQNBx3D7oyv0FQ0tJSYh2MpSLavc"><path d=" M 0 0 L 0 490.319 L 490.319 490.319 L 490.319 0 L 0 0 Z " fill="rgb(255,255,255)"/></clipPath><g clip-path="url(#_clipPath_QPrIBQNBx3D7oyv0FQ0tJSYh2MpSLavc)"><path d=" M 85.019 168.185 C 85.019 168.185 86.468 158.367 74.606 156.826 C 62.745 155.287 51.162 168.763 56.508 179.928 C 61.854 191.094 54.058 198.949 50.048 198.39 C 50.048 198.39 54.885 203.415 60.04 200.334 C 65.195 197.254 71.687 192.056 71.225 178.003 C 70.763 163.95 85.019 168.185 85.019 168.185 Z " fill="rgb(217,151,90)"/></g></g></svg>