<?xml version="1.0" encoding="UTF-8" standalone="no"?>
<!-- Created with Inkscape (http://www.inkscape.org/) -->

<svg
   xmlns:dc="http://purl.org/dc/elements/1.1/"
   xmlns:cc="http://creativecommons.org/ns#"
   xmlns:rdf="http://www.w3.org/1999/02/22-rdf-syntax-ns#"
   xmlns:svg="http://www.w3.org/2000/svg"
   xmlns="http://www.w3.org/2000/svg"
   xmlns:sodipodi="http://sodipodi.sourceforge.net/DTD/sodipodi-0.dtd"
   xmlns:inkscape="http://www.inkscape.org/namespaces/inkscape"
   version="1.1"
   id="svg3767"
   xml:space="preserve"
   width="666.66669"
   height="666.66669"
   viewBox="0 0 666.66669 666.66669"
   sodipodi:docname="banner1_1.svg"
   inkscape:version="0.92.3 (3ce5693, 2018-03-11)"><metadata
     id="metadata3773"><rdf:RDF><cc:Work
         rdf:about=""><dc:format>image/svg+xml</dc:format><dc:type
           rdf:resource="http://purl.org/dc/dcmitype/StillImage" /><dc:title></dc:title></cc:Work></rdf:RDF></metadata><defs
     id="defs3771"><clipPath
       clipPathUnits="userSpaceOnUse"
       id="clipPath3785"><path
         d="M 0,500 H 500 V 0 H 0 Z"
         id="path3783"
         inkscape:connector-curvature="0" /></clipPath><clipPath
       clipPathUnits="userSpaceOnUse"
       id="clipPath3803"><path
         d="M 0,105.149 H 500 V 0 H 0 Z"
         id="path3801"
         inkscape:connector-curvature="0" /></clipPath><clipPath
       clipPathUnits="userSpaceOnUse"
       id="clipPath3961"><path
         d="M 0,500 H 500 V 0 H 0 Z"
         id="path3959"
         inkscape:connector-curvature="0" /></clipPath><clipPath
       clipPathUnits="userSpaceOnUse"
       id="clipPath3969"><path
         d="m 360.447,144.056 h 99.22 v -11.663 h -99.22 z"
         id="path3967"
         inkscape:connector-curvature="0" /></clipPath><clipPath
       clipPathUnits="userSpaceOnUse"
       id="clipPath3985"><path
         d="M 188.384,67.3108 H 304.26 V 47 H 188.384 Z"
         id="path3983"
         inkscape:connector-curvature="0" /></clipPath><clipPath
       clipPathUnits="userSpaceOnUse"
       id="clipPath4033"><path
         d="m 259.073,330.548 h 28.15 v -44.805 h -28.15 z"
         id="path4031"
         inkscape:connector-curvature="0" /></clipPath><clipPath
       clipPathUnits="userSpaceOnUse"
       id="clipPath4057"><path
         d="m 255.088,312.966 h 8.437 v -12.314 h -8.437 z"
         id="path4055"
         inkscape:connector-curvature="0" /></clipPath><clipPath
       clipPathUnits="userSpaceOnUse"
       id="clipPath4109"><path
         d="M 63.9004,64.362 H 172.001 V 45.4141 H 63.9004 Z"
         id="path4107"
         inkscape:connector-curvature="0" /></clipPath></defs><sodipodi:namedview
     pagecolor="#ffffff"
     bordercolor="#666666"
     borderopacity="1"
     objecttolerance="10"
     gridtolerance="10"
     guidetolerance="10"
     inkscape:pageopacity="0"
     inkscape:pageshadow="2"
     inkscape:window-width="1920"
     inkscape:window-height="1022"
     id="namedview3769"
     showgrid="false"
     inkscape:zoom="0.93303299"
     inkscape:cx="226.16138"
     inkscape:cy="378.97312"
     inkscape:window-x="0"
     inkscape:window-y="34"
     inkscape:window-maximized="1"
     inkscape:current-layer="g3775" /><g
     id="g3775"
     inkscape:groupmode="layer"
     inkscape:label="264025-P589D7-125"
     transform="matrix(1.3333333,0,0,-1.3333333,0,666.66667)"><path
       d="M 0,143.415 H 500 V 500 H 0 Z"
       style="fill:#93ded7;fill-opacity:1;fill-rule:nonzero;stroke:none"
       id="path3777"
       inkscape:connector-curvature="0" /><g
       id="g3779"><g
         id="g3781"
         clip-path="url(#clipPath3785)"><g
           id="g3787"
           transform="translate(365.3246,163.3637)"><path
             d="m 0,0 h -29.836 v 79.791 c 0,7.692 6.679,13.928 14.918,13.928 C -6.679,93.719 0,87.483 0,79.791 Z m -129.178,207.913 h -83.905 v 0.868 c 0,10.077 19.199,26.121 41.952,26.121 22.753,0 41.953,-16.044 41.953,-26.121 z m 0,-27.504 h -17.6 v 23.002 h 17.6 z m 0,-27.503 h -17.6 v 23.002 h 17.6 z m 0,-67.455 h -17.6 v 23.002 h 17.6 z m 0,-27.504 h -17.6 v 23.002 h 17.6 z m -22.102,122.462 h -17.6 v 23.002 h 17.6 z m 0,-27.503 h -17.6 v 23.002 h 17.6 z m 0,-67.455 h -17.6 v 23.002 h 17.6 z m 0,-27.504 h -17.6 v 23.002 h 17.6 z m -22.102,122.462 h -17.599 v 23.002 h 17.599 z m 0,-27.503 h -17.599 v 23.002 h 17.599 z m 0,-67.455 h -17.599 v 23.002 h 17.599 z m 0,-27.504 h -17.599 v 23.002 h 17.599 z m -22.102,122.462 h -17.6 v 23.002 h 17.6 z m 0,-27.503 h -17.6 v 23.002 h 17.6 z m 0,-67.455 h -17.6 v 23.002 h 17.6 z m 0,-27.504 h -17.6 v 23.002 h 17.6 z m 330.159,-0.185 -0.77,-0.408 -8.41,4.855 -8.631,-4.567 -7.911,4.567 -9.175,-4.855 -8.41,4.855 -8.631,-4.567 -7.911,4.567 -7.229,-3.825 V 75.8 88.911 l 18.74,-6.075 1.927,5.266 6.343,17.329 -59.628,19.442 v 21.07 6.614 h 5.876 v 5.242 13.343 H 5.178 v -13.343 -5.242 h 6.716 V 145.943 132.4 l -98.04,31.966 v 21.091 17.592 l 6.745,-5.972 15.997,17.995 -109.706,97.115 -115.03,-102.476 16.053,-17.945 6.71,5.978 V 185.457 58.937 l -5.669,3.272 -8.631,-4.567 -7.911,4.567 -1.364,-0.722 c -0.997,38.999 -10.536,98.781 -22.159,98.781 -11.896,0 -21.612,-62.638 -22.216,-101.507 l -5.973,3.448 -8.631,-4.567 -7.911,4.567 -9.175,-4.855 V -5.682 h 16.542 1.043 16.542 16.542 1.043 16.542 16.542 1.043 13.801 v -29.266 h 175.553 3.678 153.743 v 29.266 h 14.596 1.043 16.542 16.542 1.043 16.542 0.77 z"
             style="fill:#0eb1a4;fill-opacity:1;fill-rule:nonzero;stroke:none"
             id="path3789"
             inkscape:connector-curvature="0" /></g><path
           d="M 500,124 H 0 v 38.913 h 500 z"
           style="fill:#87ac4b;fill-opacity:1;fill-rule:nonzero;stroke:none"
           id="path3791"
           inkscape:connector-curvature="0" /><path
           d="M 500,117.851 H 0 v 10.565 h 500 z"
           style="fill:#f2e2d9;fill-opacity:1;fill-rule:nonzero;stroke:none"
           id="path3793"
           inkscape:connector-curvature="0" /><path
           d="M 500,105.149 H 0 v 12.702 h 500 z"
           style="fill:#e0cbba;fill-opacity:1;fill-rule:nonzero;stroke:none"
           id="path3795"
           inkscape:connector-curvature="0" /><g
           id="g3797"><g
             id="g3799" /><g
             id="g3809"><g
               clip-path="url(#clipPath3803)"
               id="g3807"
               style="opacity:0.5"><path
                 d="M 500,0 H 0 v 105.149 h 500 z"
                 style="fill:#5d5d5d;fill-opacity:1;fill-rule:nonzero;stroke:none"
                 id="path3805"
                 inkscape:connector-curvature="0" /></g></g></g></g></g><g
       id="g3811" /><g
       id="g3955"
       transform="translate(183)"><g
         id="g3957"
         clip-path="url(#clipPath3961)"><g
           id="g3963"><g
             id="g3965" /><g
             id="g3977"><g
               clip-path="url(#clipPath3969)"
               id="g3975"
               style="opacity:0.19999701"><g
                 transform="translate(360.4467,138.2247)"
                 id="g3973"><path
                   d="m 0,0 c 0,-3.221 22.211,-5.832 49.61,-5.832 27.399,0 49.61,2.611 49.61,5.832 0,3.221 -22.211,5.832 -49.61,5.832 C 22.211,5.832 0,3.221 0,0"
                   style="fill:#5d5d5d;fill-opacity:1;fill-rule:nonzero;stroke:none"
                   id="path3971"
                   inkscape:connector-curvature="0" /></g></g></g></g><g
           id="g3979"><g
             id="g3981" /><g
             id="g3993"><g
               clip-path="url(#clipPath3985)"
               id="g3991"
               style="opacity:0.19999701"><g
                 transform="translate(188.3842,57.1554)"
                 id="g3989"><path
                   d="m 0,0 c 0,-5.609 25.94,-10.155 57.938,-10.155 31.998,0 57.938,4.546 57.938,10.155 0,5.609 -25.94,10.155 -57.938,10.155 C 25.94,10.155 0,5.609 0,0"
                   style="fill:#5d5d5d;fill-opacity:1;fill-rule:nonzero;stroke:none"
                   id="path3987"
                   inkscape:connector-curvature="0" /></g></g></g></g><g
           id="g3995"
           transform="translate(268.8747,89.9016)"><path
             d="m 0,0 c 0,0 -0.273,-25.139 -3.616,-28.751 l -3.81,-0.171 c 0,0 -2.029,24.349 -3.042,33.003 C -11.481,12.734 0,0 0,0"
             style="fill:#ffc3a4;fill-opacity:1;fill-rule:nonzero;stroke:none"
             id="path3997"
             inkscape:connector-curvature="0" /></g><g
           id="g3999"
           transform="translate(267.2571,67.3108)"><path
             d="M 0,0 C 0,0 21.557,-3.372 22.025,-7.391 22.494,-11.409 -7.25,-9.57 -7.25,-9.57 l 0.929,9.286 c 0,0 2.704,-3.907 6.321,0.284"
             style="fill:#ffffff;fill-opacity:1;fill-rule:nonzero;stroke:none"
             id="path4001"
             inkscape:connector-curvature="0" /></g><g
           id="g4003"
           transform="translate(220.1954,89.9016)"><path
             d="m 0,0 c 0,0 0.273,-25.139 3.616,-28.751 l 3.81,-0.171 c 0,0 2.029,24.349 3.042,33.003 C 11.48,12.734 0,0 0,0"
             style="fill:#ffc3a4;fill-opacity:1;fill-rule:nonzero;stroke:none"
             id="path4005"
             inkscape:connector-curvature="0" /></g><g
           id="g4007"
           transform="translate(260.9583,294.5543)"><path
             d="M 0,0 -3.156,-16.491 7.432,-17 11.257,-1.821 Z"
             style="fill:#eb9780;fill-opacity:1;fill-rule:nonzero;stroke:none"
             id="path4009"
             inkscape:connector-curvature="0" /></g><g
           id="g4011"
           transform="translate(242.5776,290.3023)"><path
             d="M 0,0 C 0,0 40.916,0.196 41.812,-8.942 L 44.646,27.583 4.142,28.939 Z"
             style="fill:#c4694b;fill-opacity:1;fill-rule:nonzero;stroke:none"
             id="path4013"
             inkscape:connector-curvature="0" /></g><g
           id="g4015"
           transform="translate(224.7609,213.5391)"><path
             d="m 0,0 c 0,0 -12.297,-21.69 -4.989,-125.47 l 11.784,-1.009 c 0,0 5.065,65.388 16.24,97.472 l 9.287,-97.472 h 13.166 c 0,0 6.878,111.025 2.579,125.426 C 43.768,13.347 0,0 0,0"
             style="fill:#436077;fill-opacity:1;fill-rule:nonzero;stroke:none"
             id="path4017"
             inkscape:connector-curvature="0" /></g><g
           id="g4019"
           transform="translate(222.3495,208.557)"><path
             d="m 0,0 c 0,0 21.186,-13.676 51.885,-7.623 0,0 4.756,42.213 7.35,52.59 L 77.827,21.619 56.208,6.332 60.1,-2.748 c 0,0 30.698,19.178 30.266,24.799 -0.433,5.621 -24.645,36.319 -24.645,36.319 0,0 -6.918,9.513 -15.566,10.377 l 0.433,6.054 -17.728,3.891 -1.297,-7.783 c 0,0 -12.539,0.865 -15.998,-4.324 -3.459,-5.188 -23.78,-29.577 -23.78,-29.577 l -25.942,2.452 v -8.04 c 0,0 28.969,-7.207 34.157,-3.316 5.188,3.892 18.295,24.645 18.295,24.645 C 18.295,52.749 3.891,22.138 0,0"
             style="fill:#e47e82;fill-opacity:1;fill-rule:nonzero;stroke:none"
             id="path4021"
             inkscape:connector-curvature="0" /></g><g
           id="g4023"
           transform="translate(257.657,329.6554)"><path
             d="m 0,0 c 0,0 -21.809,-23.085 -5.545,-37.683 16.265,-14.598 31.227,-0.37 34.008,9.845 C 34.008,-7.469 17.743,14.598 0,0"
             style="fill:#ffc3a4;fill-opacity:1;fill-rule:nonzero;stroke:none"
             id="path4025"
             inkscape:connector-curvature="0" /></g><g
           id="g4027"><g
             id="g4029" /><g
             id="g4041"><g
               clip-path="url(#clipPath4033)"
               id="g4039"
               style="opacity:0.69999701"><g
                 transform="translate(278.8995,330.5475)"
                 id="g4037"><path
                   d="m 0,0 c 1.462,-2.504 2.424,-5.362 2.751,-8.428 0.702,-6.587 1.077,-14.157 -1.532,-20.432 -3.361,-8.083 -9.211,-13.872 -18.346,-14.373 -0.899,-0.05 -1.802,-0.03 -2.7,0.041 13.387,-5.921 24.67,5.729 27.048,14.462 C 10.264,-17.549 6.736,-5.859 0,0"
                   style="fill:#fda98b;fill-opacity:1;fill-rule:nonzero;stroke:none"
                   id="path4035"
                   inkscape:connector-curvature="0" /></g></g></g></g><g
           id="g4043"
           transform="translate(259.6353,329.7563)"><path
             d="m 0,0 c 0,0 1.33,-13.878 19.227,-17.42 l -1.898,5.06 c 0,0 11.795,-6.36 4.813,-22.031 0,0 -5.538,-8.917 -3.729,-15.67 0,0 1.573,2.783 5.939,4.048 l -1.872,-4.048 c 0,0 13.287,2.024 14.101,10.121 0.813,8.097 9.511,36.313 -9.828,48.582 C 11.597,18.257 -1.33,8.311 0,0"
             style="fill:#e5825d;fill-opacity:1;fill-rule:nonzero;stroke:none"
             id="path4045"
             inkscape:connector-curvature="0" /></g><g
           id="g4047"
           transform="translate(263.0407,338.2396)"><path
             d="m 0,0 c 2.296,-0.95 -10.804,6.081 -18.887,-10.721 -7.425,-15.435 -4.02,-34.401 0,-41.245 0,0 0.024,33.148 15.482,43.483 z"
             style="fill:#e5825d;fill-opacity:1;fill-rule:nonzero;stroke:none"
             id="path4049"
             inkscape:connector-curvature="0" /></g><g
           id="g4051"><g
             id="g4053" /><g
             id="g4065"><g
               clip-path="url(#clipPath4057)"
               id="g4063"
               style="opacity:0.69999701"><g
                 transform="translate(263.5251,312.9662)"
                 id="g4061"><path
                   d="m 0,0 -8.437,-7.275 6.276,-5.04 z"
                   style="fill:#e69078;fill-opacity:1;fill-rule:nonzero;stroke:none"
                   id="path4059"
                   inkscape:connector-curvature="0" /></g></g></g></g><g
           id="g4067"
           transform="translate(268.6174,308.2221)"><path
             d="M 0,0 C 0,0 -0.036,0.272 0.015,0.753 0.044,0.993 0.091,1.285 0.187,1.614 0.288,1.94 0.421,2.311 0.64,2.684 0.857,3.057 1.126,3.462 1.509,3.801 1.871,4.162 2.328,4.479 2.841,4.709 3.351,4.94 3.91,5.121 4.485,5.189 4.773,5.248 5.06,5.241 5.349,5.254 L 5.784,5.266 6.245,5.22 C 6.698,5.181 7.481,4.989 8.007,4.657 L 8.416,4.405 C 8.536,4.298 8.647,4.18 8.758,4.067 8.998,3.853 9.148,3.581 9.307,3.326 9.47,3.071 9.546,2.793 9.645,2.533 9.71,2.266 9.758,2.005 9.798,1.754 9.853,1.252 9.837,0.786 9.788,0.367 9.695,-0.472 9.47,-1.126 9.294,-1.569 9.115,-2.013 8.976,-2.248 8.976,-2.248 c 0,0 0.017,0.273 0.026,0.739 0.009,0.464 0.009,1.126 -0.076,1.881 C 8.88,0.749 8.799,1.143 8.698,1.54 8.573,1.929 8.408,2.311 8.18,2.635 8.056,2.787 7.95,2.959 7.783,3.066 L 7.559,3.253 7.295,3.395 C 7.127,3.517 6.936,3.547 6.757,3.608 6.612,3.687 6.312,3.701 6.054,3.732 L 5.857,3.759 5.758,3.773 5.709,3.78 5.684,3.784 5.672,3.785 C 5.699,3.783 5.603,3.792 5.731,3.781 H 5.725 L 5.366,3.78 C 5.128,3.777 4.885,3.795 4.659,3.751 4.197,3.704 3.748,3.635 3.341,3.489 2.936,3.341 2.545,3.176 2.218,2.939 1.88,2.719 1.593,2.451 1.339,2.186 0.839,1.644 0.507,1.08 0.3,0.67 0.091,0.259 0,0 0,0"
             style="fill:#595959;fill-opacity:1;fill-rule:nonzero;stroke:none"
             id="path4069"
             inkscape:connector-curvature="0" /></g><g
           id="g4071"
           transform="translate(250.6033,313.3145)"><path
             d="m 0,0 c 0,0 -0.024,0.273 0.048,0.752 0.04,0.238 0.1,0.528 0.21,0.852 0.116,0.321 0.265,0.686 0.5,1.049 0.233,0.363 0.52,0.755 0.918,1.078 0.377,0.344 0.848,0.64 1.37,0.848 0.52,0.208 1.086,0.365 1.664,0.407 0.291,0.046 0.576,0.026 0.866,0.026 L 6.011,5.006 6.47,4.939 C 6.921,4.88 7.694,4.654 8.205,4.299 L 8.603,4.029 C 8.718,3.917 8.823,3.794 8.929,3.676 9.16,3.452 9.297,3.174 9.445,2.911 9.596,2.65 9.66,2.369 9.748,2.104 9.801,1.835 9.837,1.572 9.866,1.32 9.898,0.815 9.862,0.35 9.795,-0.066 9.664,-0.9 9.411,-1.543 9.216,-1.979 9.017,-2.414 8.868,-2.643 8.868,-2.643 c 0,0 0.029,0.272 0.058,0.737 0.03,0.464 0.059,1.125 0.008,1.883 C 8.904,0.356 8.841,0.753 8.758,1.154 8.65,1.548 8.502,1.937 8.289,2.271 8.171,2.429 8.073,2.605 7.911,2.719 L 7.695,2.915 7.438,3.069 C 7.275,3.199 7.086,3.237 6.909,3.306 6.769,3.391 6.47,3.418 6.213,3.461 L 6.017,3.497 5.919,3.515 5.871,3.524 5.846,3.529 5.834,3.531 C 5.861,3.528 5.765,3.54 5.892,3.524 H 5.887 L 5.528,3.539 C 5.29,3.547 5.048,3.575 4.82,3.542 4.356,3.514 3.905,3.466 3.492,3.338 3.081,3.208 2.683,3.06 2.346,2.838 1.998,2.633 1.7,2.378 1.434,2.125 0.911,1.605 0.554,1.056 0.329,0.656 0.102,0.254 0,0 0,0"
             style="fill:#595959;fill-opacity:1;fill-rule:nonzero;stroke:none"
             id="path4073"
             inkscape:connector-curvature="0" /></g><g
           id="g4075"
           transform="translate(254.2082,299.8166)"><path
             d="M 0,0 17.354,-2.811 C 17.354,-2.811 7.864,-9.934 0,0"
             style="fill:#ffffff;fill-opacity:1;fill-rule:nonzero;stroke:none"
             id="path4077"
             inkscape:connector-curvature="0" /></g><g
           id="g4079"
           transform="translate(279.0613,213.7142)"><path
             d="m 0,0 -1.984,-1.701 c 0,0 -6.215,5.902 -9.761,4.759 0,0 -7.999,-7.999 -5.405,-7.567 2.594,0.433 5.189,3.051 5.189,3.051 0,0 -9.245,-12.347 2.836,-1.321 0,0 -4.566,-8.648 -2.404,-7.134 2.162,1.513 4.972,5.674 4.972,5.674 0,0 1.514,-4.809 3.243,-4.377 1.73,0.432 5.685,3.085 5.685,3.085 z"
             style="fill:#ffc3a4;fill-opacity:1;fill-rule:nonzero;stroke:none"
             id="path4081"
             inkscape:connector-curvature="0" /></g><g
           id="g4083"
           transform="translate(180.232,255.0368)"><path
             d="m 0,0 c -1.819,-0.227 2.455,-6.44 2.457,-6.442 -0.576,0.084 -1.172,0.171 -1.78,0.258 -7.825,1.118 -17.357,1.351 -3.179,-2.003 0,0 -17.739,-0.228 -0.909,-2.047 0,0 -15.466,-3.184 0.682,-2.957 0,0 -10.689,-3.716 0,-2.729 10.689,0.987 10.689,2.047 10.689,2.047 v 6.595 C 7.96,-7.278 1.819,0.227 0,0"
             style="fill:#ffc3a4;fill-opacity:1;fill-rule:nonzero;stroke:none"
             id="path4085"
             inkscape:connector-curvature="0" /></g><g
           id="g4087"
           transform="translate(217.1236,94.6563)"><path
             d="M 0,0 15.8,-0.84 14.78,-9.092 0.579,-8.387 Z"
             style="fill:#597386;fill-opacity:1;fill-rule:nonzero;stroke:none"
             id="path4089"
             inkscape:connector-curvature="0" /></g><g
           id="g4091"
           transform="translate(255.6131,94.6563)"><path
             d="M 0,0 15.8,-0.84 14.78,-9.092 0.579,-8.387 Z"
             style="fill:#597386;fill-opacity:1;fill-rule:nonzero;stroke:none"
             id="path4093"
             inkscape:connector-curvature="0" /></g><g
           id="g4095"
           transform="translate(221.813,67.3108)"><path
             d="M 0,0 C 0,0 -21.557,-3.372 -22.025,-7.391 -22.494,-11.409 7.25,-9.57 7.25,-9.57 L 6.321,-0.284 C 6.321,-0.284 3.617,-4.191 0,0"
             style="fill:#ffffff;fill-opacity:1;fill-rule:nonzero;stroke:none"
             id="path4097"
             inkscape:connector-curvature="0" /></g><g
           id="g4099"
           transform="translate(121.588,317.8203)"><path
             d="M 0,0 C 0.683,0 7.508,-12.747 7.508,-12.747 L 1.593,-15.771 Z"
             style="fill:#ffc3a4;fill-opacity:1;fill-rule:nonzero;stroke:none"
             id="path4101"
             inkscape:connector-curvature="0" /></g><g
           id="g4103"><g
             id="g4105" /><g
             id="g4117"><g
               clip-path="url(#clipPath4109)"
               id="g4115"
               style="opacity:0.19999701"><g
                 transform="translate(63.9004,54.8881)"
                 id="g4113"><path
                   d="m 0,0 c 0,-5.232 24.199,-9.474 54.05,-9.474 29.851,0 54.051,4.242 54.051,9.474 0,5.232 -24.2,9.474 -54.051,9.474 C 24.199,9.474 0,5.232 0,0"
                   style="fill:#5d5d5d;fill-opacity:1;fill-rule:nonzero;stroke:none"
                   id="path4111"
                   inkscape:connector-curvature="0" /></g></g></g></g><g
           id="g4119"
           transform="translate(167.3374,232.9445)"><path
             d="m 0,0 c 1.697,-0.212 -2.291,-6.008 -2.292,-6.01 0.537,0.079 1.093,0.16 1.661,0.241 7.3,1.043 16.192,1.26 2.965,-1.869 0,0 16.549,-0.212 0.849,-1.91 0,0 14.427,-2.97 -0.637,-2.758 0,0 9.972,-3.466 0,-2.546 -9.972,0.921 -9.972,1.91 -9.972,1.91 v 6.153 c 0,0 5.729,7.001 7.426,6.789"
             style="fill:#ffc3a4;fill-opacity:1;fill-rule:nonzero;stroke:none"
             id="path4121"
             inkscape:connector-curvature="0" /></g><g
           id="g4123"
           transform="translate(116.2263,300.524)"><path
             d="M 0,0 H 7.916 C 9.338,11.613 4.507,28.387 4.507,28.387 -9.219,35.242 -16.21,-10.677 -16.21,-10.677 c 0,0 8.478,-5.366 19.2,0.882 1.677,0.977 2.866,2.583 3.68,4.597 C 1.192,-4.569 0,0 0,0"
             style="fill:#ffc3a4;fill-opacity:1;fill-rule:nonzero;stroke:none"
             id="path4125"
             inkscape:connector-curvature="0" /></g><g
           id="g4127"
           transform="translate(91.9947,292.7585)"><path
             d="M 0,0 V -14.021 H 14.559 L 15.532,0 Z"
             style="fill:#ffc3a4;fill-opacity:1;fill-rule:nonzero;stroke:none"
             id="path4129"
             inkscape:connector-curvature="0" /></g><g
           id="g4131"
           transform="translate(77.139,275.3988)"><path
             d="m 0,0 c -6.311,-10.009 -19.798,-51.156 -15.342,-53.011 4.456,-1.854 12.857,-5.859 12.857,-5.859 0,0 9.509,61.747 2.485,58.87"
             style="fill:#d1b9b7;fill-opacity:1;fill-rule:nonzero;stroke:none"
             id="path4133"
             inkscape:connector-curvature="0" /></g><g
           id="g4135"
           transform="translate(76.7691,264.0609)"><path
             d="m 0,0 c 0,0 -12.105,-42.479 -9.381,-44.019 2.725,-1.54 7.266,-3.513 7.266,-3.513 z"
             style="fill:#ac9796;fill-opacity:1;fill-rule:nonzero;stroke:none"
             id="path4137"
             inkscape:connector-curvature="0" /></g><g
           id="g4139"
           transform="translate(85.86,277.1228)"><path
             d="m 0,0 2.971,6.391 c 0,0 13.962,2.376 20.201,0 v -7.724 z"
             style="fill:#fafffa;fill-opacity:1;fill-rule:nonzero;stroke:none"
             id="path4141"
             inkscape:connector-curvature="0" /></g><g
           id="g4143"
           transform="translate(124.6758,135.8757)"><path
             d="m 0,0 v 0 l 1.937,23.953 h -21.086 l 5.171,-21.734 c 0,0 -3.067,-13.74 0,-27.479 3.066,-13.74 14.31,-54.959 14.31,-54.959 h 6.133 z"
             style="fill:#635752;fill-opacity:1;fill-rule:nonzero;stroke:none"
             id="path4145"
             inkscape:connector-curvature="0" /></g><g
           id="g4147"
           transform="translate(122.1958,65.3192)"><path
             d="m 0,0 c 0,0 3.797,-1.947 8.747,3.404 0,0 11.19,-8.462 16.983,-8.908 V -9.663 H 0 Z"
             style="fill:#332626;fill-opacity:1;fill-rule:nonzero;stroke:none"
             id="path4149"
             inkscape:connector-curvature="0" /></g><g
           id="g4151"
           transform="translate(100.6165,135.7681)"><path
             d="m 0,0 v 0 l 4.142,23.683 -22.487,1.956 3.63,-22.131 c 0,0 -4.461,-13.404 -2.382,-27.376 2.079,-13.973 10.497,-56.08 10.497,-56.08 l 6.541,-0.569 z"
             style="fill:#635752;fill-opacity:1;fill-rule:nonzero;stroke:none"
             id="path4153"
             inkscape:connector-curvature="0" /></g><g
           id="g4155"
           transform="translate(92.1417,65.4111)"><path
             d="m 0,0 c 0,0 3.812,-1.916 8.719,3.477 0,0 11.259,-8.37 17.056,-8.768 L 25.809,-9.45 0.08,-9.663 Z"
             style="fill:#332626;fill-opacity:1;fill-rule:nonzero;stroke:none"
             id="path4157"
             inkscape:connector-curvature="0" /></g><g
           id="g4159"
           transform="translate(145.6297,189.3218)"><path
             d="m 0,0 h -3.845 c 0,10.492 -7.636,31.905 -7.728,32.12 l 2.222,0.946 C -8.969,32.17 0,10.984 0,0"
             style="fill:#3b2c2a;fill-opacity:1;fill-rule:nonzero;stroke:none"
             id="path4161"
             inkscape:connector-curvature="0" /></g><g
           id="g4163"
           transform="translate(74.9288,203.2409)"><path
             d="m 0,0 c 0,0 0.446,-45.566 4.011,-51.359 0,0 32.084,-9.971 50.354,3.565 l -5.628,45.99 z"
             style="fill:#ac9796;fill-opacity:1;fill-rule:nonzero;stroke:none"
             id="path4165"
             inkscape:connector-curvature="0" /></g><g
           id="g4167"
           transform="translate(122.146,275.3988)"><path
             d="m 0,0 c 0,0 -24.509,11.51 -45.007,0 0,0 -8.827,-60.852 -3.612,-88.035 0,0 18.781,-11.598 53.985,-2.144 0,0 -4.011,41.928 -4.902,57.137 0,0 4.456,-25.074 11.14,-27.13 6.684,-2.055 28.519,2.056 28.519,2.056 l -3.119,11.098 c 0,0 -14.705,-2.466 -16.933,-0.822 C 17.843,-46.196 9.358,-5.344 0,0"
             style="fill:#d1b9b7;fill-opacity:1;fill-rule:nonzero;stroke:none"
             id="path4169"
             inkscape:connector-curvature="0" /></g><g
           id="g4171"
           transform="translate(102.1271,188.0649)"><path
             d="m 0,0 -0.51,0.059 0.305,2.395 c -0.598,0.074 -1.048,-0.297 -1.177,-0.587 -1.5,0.475 1.432,3.985 5.459,39.363 4.066,35.73 8.814,45.667 12.081,47.711 1.018,0.637 3.651,-1.533 3.861,-1.607 0.184,-0.065 -1.655,0.294 -1.652,0.294 C 18.306,87.617 11.161,88.401 6.475,40.956 2.578,1.5 0.874,0.686 0.397,0.312 Z"
             style="fill:#3b2c2a;fill-opacity:1;fill-rule:nonzero;stroke:none"
             id="path4173"
             inkscape:connector-curvature="0" /></g><g
           id="g4175"
           transform="translate(101.7697,193.7481)"><path
             d="M 0,0 C 0,0 43.055,4.426 45.469,0 47.884,-4.426 51.505,-31.386 42.653,-32.996 33.8,-34.605 4.829,-42.653 0,-30.581 -4.829,-18.51 -4.317,-0.409 0,0"
             style="fill:#4f403f;fill-opacity:1;fill-rule:nonzero;stroke:none"
             id="path4177"
             inkscape:connector-curvature="0" /></g><g
           id="g4179"
           transform="translate(107.8055,173.07)"><path
             d="m 0,0 c -2.586,6.464 -3.639,14.654 -3.397,20.933 -1.661,-0.154 -2.639,-0.255 -2.639,-0.255 -4.317,-0.409 -4.828,-18.51 0,-30.581 4.829,-12.072 33.801,-4.024 42.653,-2.414 3.277,0.595 4.841,4.667 5.394,9.781 C 32.492,-4.381 4.719,-11.799 0,0"
             style="fill:#332626;fill-opacity:1;fill-rule:nonzero;stroke:none"
             id="path4181"
             inkscape:connector-curvature="0" /></g><g
           id="g4183"
           transform="translate(127.5223,168.8002)"><path
             d="m 0,0 v -4.829 l 12.273,2.415 v 4.426 z"
             style="fill:#d1b9b7;fill-opacity:1;fill-rule:nonzero;stroke:none"
             id="path4185"
             inkscape:connector-curvature="0" /></g><g
           id="g4187"
           transform="translate(97.6976,290.3748)"><path
             d="M 0,0 C 0,0 -15.98,0.859 -21.083,17.17 -27.029,36.174 -9.696,50.704 4.484,49.415 18.664,48.126 25.528,43.399 26.178,35.235 26.828,27.071 18.234,20.687 13.937,21.731 L 12.031,11.207 9.581,21.731 C 9.581,21.731 8.33,0.367 0,0"
             style="fill:#de974a;fill-opacity:1;fill-rule:nonzero;stroke:none"
             id="path4189"
             inkscape:connector-curvature="0" /></g><g
           id="g4191"
           transform="translate(107.2789,312.1054)"><path
             d="M 0,0 C 0,0 -4.564,7.072 -7.143,-1.092 -8.515,-5.44 0,-15.741 0,-10.524 Z"
             style="fill:#ffc3a4;fill-opacity:1;fill-rule:nonzero;stroke:none"
             id="path4193"
             inkscape:connector-curvature="0" /></g><g
           id="g4195"
           transform="translate(114.8787,311.9894)"><path
             d="M 0,0 C 0,0 0.13,-0.142 0.331,-0.402 0.433,-0.528 0.546,-0.699 0.684,-0.866 0.833,-1.021 0.996,-1.186 1.146,-1.37 1.322,-1.54 1.536,-1.702 1.72,-1.889 1.953,-2.016 2.152,-2.212 2.403,-2.297 2.634,-2.432 2.887,-2.48 3.128,-2.556 3.254,-2.563 3.378,-2.568 3.5,-2.59 c 0.123,-0.005 0.245,0.024 0.368,0.026 0.241,0.039 0.482,0.102 0.707,0.22 0.121,0.039 0.222,0.119 0.329,0.192 0.108,0.069 0.219,0.137 0.307,0.236 0.201,0.169 0.378,0.367 0.535,0.579 0.167,0.202 0.267,0.444 0.412,0.647 0.106,0.231 0.203,0.443 0.289,0.63 0.099,0.193 0.134,0.377 0.195,0.526 0.108,0.301 0.186,0.485 0.186,0.485 0,0 0.068,-0.173 0.158,-0.498 0.032,-0.162 0.12,-0.365 0.117,-0.599 0.011,-0.235 0.04,-0.51 0.012,-0.808 C 7.058,-1.246 7.045,-1.59 6.898,-1.918 6.829,-2.087 6.757,-2.259 6.684,-2.436 6.6,-2.61 6.469,-2.766 6.355,-2.937 6.248,-3.115 6.089,-3.258 5.927,-3.404 5.77,-3.555 5.605,-3.703 5.399,-3.805 5.02,-4.056 4.563,-4.199 4.103,-4.277 3.869,-4.289 3.632,-4.316 3.401,-4.3 3.171,-4.271 2.943,-4.224 2.721,-4.18 2.295,-4.028 1.889,-3.849 1.574,-3.582 1.218,-3.361 1.015,-3.018 0.772,-2.758 0.585,-2.457 0.424,-2.17 0.307,-1.892 0.202,-1.603 0.131,-1.336 0.072,-1.108 0.018,-0.883 0.027,-0.685 0.011,-0.521 -0.005,-0.193 0,0 0,0"
             style="fill:#595959;fill-opacity:1;fill-rule:nonzero;stroke:none"
             id="path4197"
             inkscape:connector-curvature="0" /></g><g
           id="g4199"
           transform="translate(86.6979,328.4943)"><path
             d="m 0,0 c 0,0 1.477,10.012 -10.619,11.582 -12.095,1.571 -23.907,-12.171 -18.455,-23.557 5.451,-11.386 -2.499,-19.397 -6.588,-18.827 0,0 4.933,-5.123 10.189,-1.982 5.257,3.141 11.878,8.441 11.407,22.772 C -14.537,4.319 0,0 0,0"
             style="fill:#de974a;fill-opacity:1;fill-rule:nonzero;stroke:none"
             id="path4201"
             inkscape:connector-curvature="0" /></g></g></g></g></svg>